<?xml version="1.0"?><svg version="1.2" baseProfile="tiny-ps" viewBox="0 0 240 240" xmlns="http://www.w3.org/2000/svg" xmlns:xlink="http://www.w3.org/1999/xlink"><title>nicecards</title><g><g fill="#fefefe" transform="matrix(.1 0 0 -.1 0 240)"><path d="M0 1200V0h2400v2400H0V1200z"/></g><g fill="#f1f1f1" transform="matrix(.1 0 0 -.1 0 240)"><path d="M62 1200 65 60h2280l5 1140 5 1140H60l2-1140zm2218 545v-535H130v1070h2150v-535zm-777-825 37-11 1-17 1-17 4 12 5 12 15-6 14-5-6-9-5-9h10c6 0 22-10 36-22l24-21 12-34 11-34-6-14-5-14 10-7 10-6-5-29c-3-16-9-43-12-59l-6-31-24-24c-14-14-25-28-27-32-1-5-5-7-9-5-5 1-8-3-8-9v-10l-10 6-10 6v-21h-33l19-22 19-21-12 7-13 7v-10c0-6 5-11 11-11 13 0 55-51 51-62-1-5 4-7 10-6l13 3-3-13-2-13 9 5 9 6 11-14 12-14-31-10c-16-6-30-9-30-6s-13-4-30-16l-30-21-11 7-12 7 7-11 7-12h-30l-11 20c-6 11-8 25-5 30l5 9-11 7-12 7 7-11c4-7 5-12 2-12-10 0-45 77-39 84 4 3 2 6-4 6s-14 10-19 23l-8 22-3-77-4-78h-210v78c0 42-3 149-8 237s-10 190-10 227l-1 67 53 4c28 3 95 3 147 1l95-3 38-11zm463 5c46-7 81-22 104-45l20-20v23l25-23 24-23-6-10-6-10 11 7 11 7 11-21 11-20-7-12-7-11 10 6 10 6 13-27 12-27 5-80 4-80-14-45-14-45-10 2-9 2v-22l1-22-13 3-13 2 6-10 7-11-22-24-23-24-9 5-8 5 5 10 6 9h-21l3-22 2-23-17 1-18 2 6-9 5-9-15-2c-9 0-22-1-28-2-7-1-16-5-20-11l-7-10h-125c-68 0-127 2-130 5-3 4-10 116-16 250-5 135-13 270-16 300l-6 55 58 3c32 2 61 6 64 9 5 5 74-1 146-12zM627 850c2-41 5-94 7-117l4-43-52-2c-28-1-59-2-68-2s-15-2-13-6c5-8-37-45-48-42l-8 2 6-10 6-10h-18l3-62c3-75 7-108 12-103 2 2 20-8 40-22l37-25 48 5 47 4-6-36c-3-20-8-44-11-54l-5-18-16 2c-9 1-25-2-36-6l-19-8-68 10-68 11-43 29-43 28-10 23c-5 12-15 22-21 22h-12l-22 47-22 46 5 19 5 18-9-6-9-5-1 38c-1 21-1 61 1 88l2 50 8 3c5 2 7 9 4 15l-4 12 30 53 30 52h31l-5 9-6 9 27 18c15 9 46 23 68 30l40 13 90-2 90-2 2-75zm391 10c7-36 25-119 39-185s26-136 27-157l1-36 8 5c4 2 8-2 8-9 4-40 8-58 22-105l16-53H949l6 10 6 10-15-6-16-6v15c0 9-4 18-10 22l-9 6-23-13c-13-7-25-16-28-19s-13-8-22-12l-17-6-13 34-12 35h-26v-19c0-11-3-26-6-35l-6-16h-96l15 67c9 38 19 70 24 71 5 2 7 8 4 12-3 5 6 60 19 122 22 98 53 262 59 308 1 8 7 18 12 23l10 7 100-2 100-3 13-65zM537 2091c-48-16-89-29-90-29-1 1-38-16-82-38-44-21-86-38-92-37l-13 1 6-9 5-9-15-6-16-6 12-21c7-12 11-25 10-29-1-5 4-7 11-5l12 2-2-12-3-13 13 3 12 2-2-12-3-13h48l12 15c7 8 17 15 22 15h9l-6-10-6-10 16 7 17 6-12 7-11 7 15 12 15 13 11-7 10-6-2 13-3 13 25-3 25-3-12 9-13 8 32 18 31 19-7-11-6-11 10-6 10-6 1 13c1 7 0 18-1 23l-2 10 7-7 8-7 21 14c33 24 39 18 16-15l-22-30-9 6-9 5 2-8c1-4-1-18-6-30l-7-23h-30l6-10 6-10h-36l13-9 13-8-14-15c-8-7-18-24-22-37l-7-24-10 14-10 14 6-17 5-18-17-30c-9-16-21-30-25-30h-8l6-9 5-9-14-15c-8-8-13-17-10-20s0-16-7-29c-16-29-18-39-26-114l-6-62 56-16c30-9 65-16 76-16h21v15c0 9 7 29 15 46l16 30 12-7 12-7-7 8-7 8 10 18 10 19h30l-6 10-6 9 17 20 18 20 10-6 11-6-7 8-7 8 20 28c11 16 24 27 28 25 9-6 21 3 46 34l20 25-20-15-20-14 29 32 29 31 10-6 10-6-6 10-7 10 19 17 18 16 6-7 7-6v28l23 15c12 8 25 13 30 12 4-1 7 4 7 11s19 27 41 45l42 31 9-5 8-5-22-32c-30-44-31-45-24-19l7 22h-21l-1-17c-1-10-2-25-3-33s-10-30-20-49l-18-34-8 14c-5 7-6 17-3 23l6 9-11-7-11-7 8-22 8-22-32-63-31-63-8 8-7 7 6-15 6-16-12-29c-15-39-22-110-14-162l6-42 10 6 10 6 52-12c29-6 60-14 70-17l17-4v33c0 40 20 121 50 201l22 57 9-6 9-5-1 8c-1 4-1 16 0 26l1 18 12-7 11-7-6 10-7 11 15 35c8 20 19 39 25 42l10 6-5 10-6 9h30l-5 15-6 15h9c5 0 14-5 20-11l10-10 7 16 6 16-10-6c-6-3-15-3-20 0l-10 6 30 44c17 25 39 49 50 55l19 10-5 15-6 15h22v39l-57 27-57 28-48 2-48 1v-8c0-4-26-26-57-48-61-43-123-94-180-149l-34-33-10 6-9 6 2-13 3-13-12 2c-7 2-12 0-10-5 1-4-20-30-46-57l-48-50 7 18c3 9 10 17 15 17s8 3 7 8c-1 4 4 19 11 34l13 26 14-5 14-5-6 15-6 15 17 26 17 26 11-7 10-6-8 13-8 13 15 11c8 6 20 21 27 34 6 12 17 22 23 22h11l-16-18c-10-10-17-22-17-27 0-4 9 4 21 19l21 27-6 14-5 14 9 6 10 6-2 24-2 24-7-5c-4-2-15 6-23 18-9 12-16 18-16 13 0-6-7-1-15 9l-14 19-48 3-48 3-88-28zm457-136c-4-8-11-15-16-15h-10l12 15c7 8 14 15 16 15s1-7-2-15zm-29 105 6-10 10 5c14 9 11 15-7 15h-15l6-10zm350-30c-3-5-17-10-31-10h-24v-51l-10 6-10 6 7-17 6-17-11 7-11 6 9-29c4-16 6-31 4-34-3-2 3-10 13-18l17-14-8 13-7 12 38 1c21 1 43 0 48-1l10-2-8 8-7 8 31 32c18 18 35 31 39 29 3-2 6 5 7 15l2 19-37 11c-20 5-44 10-52 10h-15l15 10 15 10h-12c-6 0-15-4-18-10zm-516-107-14-18 18 14c9 7 17 15 17 17 0 8-8 3-21-13zm-40-20-14-18 18 14c9 7 17 15 17 17 0 8-8 3-21-13zm439-30c7-3 16-2 19 1 4 3-2 6-13 5l-19-1 13-5zm716 0c3-4-20-15-52-26-31-10-60-24-63-29l-7-11-11 7-11 7 2-9c2-5-13-27-33-48l-35-40-11 3c-6 2-14-1-18-6l-6-11h10c19 0 12-15-20-48l-31-32-11 7-10 6 7-11 6-10-29-21-28-20-8 7-8 7 7-12 7-12-21-11-20-11-12 7-11 7 7-11 7-11-18-10-19-9-17 9-17 10v34c0 19 7 53 16 75l16 40h13c8 0 17 4 20 10l6 10-18-7-18-6 25 27c14 16 37 34 53 42l27 15v-19c0-10-5-23-12-30s-9-12-5-12c3 0 0-19-8-41-18-50-18-46 0-46 8 0 15 4 15 9v9l10-6 10-6 20 11c11 6 20 16 19 23l-1 12-5-12c-2-7-9-13-15-13h-11l18 20 18 20 26-6 26-6-15 11-14 10 22 23 22 24-15 21-14 20 6 7 6 6h-34l6 10 6 10-8-2c-4-1-29 7-54 20l-45 22-50-16c-27-9-54-21-60-25l-10-9-14 13-13 12 7-12 7-13-37-32c-21-18-41-32-46-30-4 1-7-1-6-5 1-5-4-19-12-33-9-14-21-34-27-45l-11-20-12 3-11 2 5-9 6-10-20-14c-11-7-18-16-15-19 3-2-7-15-21-29l-26-24 23 40c13 22 27 43 32 46s8 9 8 13c-1 3-1 11-1 17v10l12-7 11-7-7 11-7 12 7 11 7 11 8-13 9-14-2 26-2 25 23 37c12 20 27 37 32 37s9 4 9 9-19 13-42 19c-87 22-137 31-135 23s-55-105-65-109l-8-4 7-11 6-10-16 6-17 6v-9c0-6 5-10 11-10h10l-6-10-6-10-10 5-9 6 6-15 6-15-8-13c-5-7-9-17-10-23-1-5-7-32-13-59l-12-49 16-17 15-17-7-8-8-8 13 7 12 7v-10c0-6 3-10 8-10 4 1 15 1 25 0l18-1-4-7-5-8 58-1h59l-6 9-5 9 21 19c11 11 24 19 28 19 5 0 8 4 8 9s4 13 9 18l9 8-7-12-7-13h10c5 0 23-13 39-30l30-29-7-7-6-7 11 6 10 6 43-15 43-15 14 12 13 11 12-8 12-7-6 10-7 11 29 10c16 6 32 8 35 5 3-4 6-2 6 4 0 5 16 18 35 29 19 10 35 22 35 26v7l17-6 16-6-7 11-7 12h22l5-30 6-29 11 2 11 2 1-15v-15l18 3 17 3v-18l55-2 55-2 46 20c53 24 58 25 49 12l-5-10 9-6 10-6-4 20-4 19 17 8c9 4 20 6 25 6 4-1 7 3 7 9v10l12-7 11-7-7 11-7 11 18 10c10 5 23 9 28 10 6 1 10 4 10 9 0 13 48 62 61 62 7 0 16 5 20 12l7 11-14-8-14-9 15 18 14 18-17 13c-9 6-14 14-11 17 11 12-52-6-67-18l-16-14-8 7-8 8 6-11 7-12-56-47-56-48-10 14-10 14 6-17 5-18-18-9-18-10-8 7-8 7 7-12 7-12-21-11-20-11-15 15c-8 8-15 21-15 28v14l36 17 35 17 11-6 11-7-6 10-7 11 23 7c12 4 28 6 36 5l13-1-6 9-6 10 25 6 26 7-7 11-7 11 17-6 17-7-5 9-6 9 15 12c8 6 18 9 23 6l9-5 2 12c1 7 3 32 4 57l2 45h-10c-5 1-24 8-41 18-35 18-119 49-110 40zm55-100-10-28-43-40c-24-23-48-39-54-37l-9 3-6-23-6-22-7 6-6 7 23 38c12 21 30 46 38 55 42 46 54 57 62 53 4-3 10-1 14 5 12 19 14 10 4-17zm-45-38-19-14 11-1c6 0 17 7 24 15 16 19 9 19-16 0zm-54-46v-10l10 6c6 3 10 8 10 11 0 2-4 4-10 4-5 0-10-5-10-11zm-325 61-6-10h10c6 0 11 5 11 10 0 6-2 10-4 10-3 0-8-4-11-10zm-489-17-7-18 12 12c7 7 10 15 7 18s-9-2-12-12zm584-64v-10l10 6c6 3 10 8 10 11 0 2-4 4-10 4-5 0-10-5-10-11zm-174-16-7-18 12 12c7 7 10 15 7 18s-9-2-12-12zm480-45 5-8 10 5c13 9 11 12-6 12h-14l5-9zM326 1463l-7-18 12 12c7 7 10 15 7 18s-9-2-12-12zm1199-3-6-10 15 6c18 7 21 14 7 14-6 0-13-4-16-10zm-123-848-3-79 16-7 16-6-6 10-6 10h41l20 20 20 20v71l12-7 11-7-7 11c-4 7-13 12-21 12-7 0-15 4-17 9-1 5-19 12-38 16l-35 6-3-79zm538-53V439l-8 5-8 5v-37l11 3c5 2 22 6 37 9 72 16 112 104 85 186-6 19-10 38-9 43 1 4-1 6-5 6-5-1-12-1-18 0l-10 1 12 8 12 8-49 2-50 2V559zm235-50c-4-6-5-12-2-15 2-3 7 2 10 11 7 17 1 20-8 4zM605 771l-5-10 10-6 10-6v15c0 18-6 21-15 7zm-48-62c7-7 15-10 18-7s-2 9-12 12l-18 7 12-12zm-326-15 1-19 5 13c3 7 2 16-1 19-3 4-6-2-5-13zm36-221c-4-3-7-11-7-17v-10l12 12c6 6 9 14 7 17-3 3-9 2-12-2zm338-73-6-10h10c6 0 11 5 11 10 0 6-2 10-4 10-3 0-8-4-11-10zm218 133c-12-32-24-71-28-86l-6-29 53 7c29 4 57 10 61 14l8 8-27 71c-14 40-29 72-33 72-3 0-16-26-28-57zm-56-100c-4-3-7-11-7-17v-10l12 12c6 6 9 14 7 17-3 3-9 2-12-2z"/></g><g fill="#c5c5c5" transform="matrix(.1 0 0 -.1 0 240)"><path d="M60 1200V60h2290v2280H60V1200zm2220 545v-535H130v1070h2150v-535zM626 927c1-1 4-55 7-119l5-118h-83l-34-18c-19-9-43-29-54-43l-19-27-5-43-4-44 18-35 18-35 35-18 35-18 43 5 43 6-7-48c-3-26-11-51-16-57l-9-10H435l-45 21-45 21-43 44-42 43-22 56-21 55-1 75v75l17 51 18 51 34 41 35 40 44 21c24 12 63 26 87 31l44 9 65-5c35-3 65-6 66-7zm859-2c32-9 74-25 92-36l33-21 27-46 27-46 1-70v-71l-28-48-29-49-34-20-35-20 27-37c15-20 42-52 60-71l34-35-75-37-75-36-31 44c-17 25-40 66-52 92l-22 47-3-72-3-73h-207l-6 113c-3 61-8 186-11 277-4 91-8 177-11 192l-5 27 38 4c21 2 81 4 133 5l96 2 59-15zm539-11 50-17 52-51 52-51 16-54 16-55V554l-15-51-15-50-40-45-39-45-53-24-53-23-120-3-120-4-13 9-13 9-9 214c-5 118-12 253-16 301l-6 87 38 4c22 3 84 3 139 2l100-3 49-18zm-1004-51c10-56 48-233 109-505l9-38H941l-14 25-13 26-44-30-44-29-19 41-19 42-8-20c-5-11-11-28-14-37l-5-18H659l5 18c17 55 87 385 103 480l18 112h223l12-67zM573 2099c-145-39-323-124-323-154 0-6 18-28 40-50l39-38 58 42c59 43 200 117 208 109 2-2-21-39-51-82-76-108-141-227-170-313l-24-72v-78l61-17 61-18 14 6 14 5v17c0 9 21 46 47 83l47 66 130 131c122 122 255 234 279 234h11l-26-27c-40-43-125-179-169-269l-40-82-10-61-11-61 6-35 7-34 37-10c20-6 55-13 78-17l41-6 6 53c7 76 39 165 107 304l59 121 57 79 57 79-28 22c-15 12-50 29-79 39l-51 17-35-14c-47-20-169-118-312-251l-118-108 36 63c19 34 57 91 82 126 26 35 57 77 69 93l22 31-11 16c-6 9-28 32-50 50l-40 32-27-1c-14 0-59-9-98-20zm688-120-23-41 11-24 11-24h66l49 50c27 27 47 51 44 53-12 11-76 27-104 27h-31l-23-41zm-115-176c-20-32-50-93-67-137l-30-78 3-37 3-36 45-22 44-23h63l45 40 46 40 45-45 44-45h98l55 26c30 14 69 36 87 50 41 31 45 30 67-7 10-17 32-39 50-50l31-19h83l48 20c61 27 156 95 214 154l44 46-9 9c-6 5-23 12-40 15l-30 6-50-51c-27-27-80-71-117-96l-67-46-15 6-16 6v49l75 38c41 21 96 54 122 74l48 36 9 27 10 26-18 20c-10 11-37 30-60 41l-42 20h-75l-49-25c-64-33-113-76-143-128l-25-42-63-51c-35-29-81-62-102-74l-37-22-15 12-15 12v83l19 40 18 40 41 38c23 20 47 37 52 37h10v-18c0-10-7-40-16-66s-14-49-12-52c7-7 129 86 135 103l6 14-34 36c-42 43-79 63-116 63h-28l-51-24c-29-13-71-41-94-62l-42-38-23-45-23-46-47-45-47-45 32 65c18 36 52 96 76 133s44 70 44 72c0 5-62 21-116 30l-42 6-36-58zm834-8c0-29-133-175-147-161-3 3 8 28 23 56l28 52 35 29c32 26 61 37 61 24zM1410 626c0-30-3-61-6-70l-6-16h49l27 21 26 20v66l-18 16-19 17h-53v-54zm530-76V420h14c22 0 80 44 93 70l13 25v107l-29 29-29 29h-62V550zM820 518c-13-40-23-77-24-83l-1-10 25 2c14 2 39 5 57 8l32 6-26 74c-15 41-30 75-34 75-3 0-17-33-29-72z"/></g><g fill="#8e8e8e" transform="matrix(.1 0 0 -.1 0 240)"><path d="M70 1200V60l1138 2 1137 3v2270l-1137 3-1138 2V1200zm2210 540v-540H130v1080h2150v-540zM623 930c3-3 8-59 12-126l7-120-35 4-36 4-35-12-35-11-25-29-24-29-7-39-6-39 16-39 16-40 29-17c33-20 72-25 111-14l26 7-11-57-11-56-20-8c-11-4-50-8-86-8l-66-1-62 31-62 31-38 48-38 48-18 66-18 65 5 64 5 63 22 50c37 84 106 141 198 164l38 9 72-2c39-1 74-4 76-7zm913-19 52-22 25-27 26-27 16-44c18-52 19-109 3-165l-12-41-49-48-48-49 27-36c15-21 40-51 56-68l29-31-77-37-77-36-13 17c-7 10-30 50-51 88l-38 70-3-67-3-67-104-3-104-3-5 90c-3 50-8 158-11 240-3 83-8 180-11 217l-6 66 24 5c12 3 86 4 163 3l140-2 51-23zm461 14 51-15 48-33 47-32 31-55 31-55V505l-22-41c-47-88-119-135-233-153l-65-10-80 7-80 7-6 175c-4 96-10 234-14 307l-7 131 28 5c16 2 72 5 125 6l95 1 51-15zm-987 2c0-12 64-316 94-449 20-86 36-159 36-162s-45-6-100-6H940l-12 29-13 30-43-30c-23-16-44-29-46-29s-12 19-21 43l-18 42-12-40-12-40-51-2-52-2v7c0 4 20 95 44 202s52 243 62 303l18 107h113c62 0 113-2 113-3zM635 2113c-138-31-333-112-370-153l-20-22 43-40 43-39 47 35c63 48 140 93 191 111l42 14-8-12c-4-7-33-48-64-92s-77-118-102-165l-45-85-22-72-21-71 3-28 3-27 35-12c20-7 49-15 65-19l30-6 22 48 22 48 64 74c131 153 371 370 409 370 5 0-19-37-52-81l-60-81-56-112-55-111-8-54c-5-30-6-72-4-92l5-38 69-15c37-9 73-16 78-16h11v79l26 83 26 83 58 115c32 63 83 151 113 195 31 43 53 83 51 87-8 13-75 45-116 56l-38 10-47-24-48-24-102-87c-57-49-140-122-185-163l-82-75 35 63c19 35 64 104 102 153 37 49 67 95 67 102 0 14-39 53-80 80-24 17-37 19-75 10zm636-119-21-27v-65l16-6c9-3 23-6 33-6h17l52 53 53 53-51 12c-71 16-76 16-99-14zm-99-156c-25-28-83-144-106-215l-17-52 3-28 3-28 45-22 44-23h61l46 45 47 45 26-35c67-87 167-84 298 10l52 38 4-12c8-23 55-72 83-86 15-8 42-15 58-15 70 0 189 69 285 164l60 60-32 13-33 13-72-63c-39-34-94-77-120-96l-48-32-16 3-17 3-7 27-7 27 64 30c86 40 168 96 189 128l17 25-10 23-10 22-53 27-53 26h-61l-42-20c-24-10-61-34-83-51l-41-33-28-46-29-46-53-46c-106-89-158-114-175-86-4 6-7 30-6 54v43l28 52 28 51 33 25 32 25 14-4 14-3-12-45c-7-25-16-56-21-69l-7-24 44 30c24 17 58 45 74 63l30 32-49 44-48 44-26 7-26 6-51-18c-27-10-69-30-91-46-40-28-104-103-104-123 0-5-25-35-55-67s-55-55-55-53c0 12 82 166 114 213 20 29 36 54 36 55 0 2-26 8-57 15-32 7-65 14-74 17l-15 4-22-22zm808-51c0-22-52-83-108-127l-52-42 11 28c25 68 101 154 134 154h15v-13zM1410 610v-70h41l24 25 25 24v51l-20 20-20 20h-50v-70zm530-61V419l23 6c12 4 33 14 45 22l24 15 14 33 14 34v86l-18 21c-21 26-54 44-81 44h-21V549zM820 514c-11-36-20-71-20-76v-11l45 6c26 2 48 7 52 10 7 8-37 137-47 137-5 0-18-30-30-66z"/></g><g fill="#404040" transform="matrix(.1 0 0 -.1 0 240)"><path d="M70 1195V60h2270v2270H70V1195zm2210 550v-545H130v1090h2150v-545zm-740-833 45-20 27-28c15-16 34-46 42-66l16-37V645l-19-41-18-40-43-37-43-36 35-43c20-24 45-54 57-67 11-13 21-26 21-27 0-2-34-20-76-41l-76-37-18 24c-11 14-34 52-52 85l-33 60-3-68-3-68-107 3-107 3-6 165c-4 91-8 230-10 310l-4 145 100 5c55 3 129 2 165-2l65-6 45-20zm-915 17c4-5 9-63 12-128l6-117-50-1-49-1-32-16-32-16-16-32-16-31 4-55 5-55 33-30 33-29 58 4 59 4-4-15c-2-9-7-34-11-56l-7-40-11-7c-7-4-48-8-93-8h-80l-51 26-52 25-36 41c-21 22-46 61-58 87l-20 46-5 71-4 72 12 51 12 50 29 44 29 44 39 28c22 14 59 33 83 40l43 14h82l82 1 6-11zm1382-4 50-15 42-30 42-31 29-45 28-45 13-70 12-69-12-69-13-70-28-44c-31-49-67-78-132-107l-43-19-62-7-62-6-75 7-76 7v86c0 91-17 445-24 499l-5 32 17 4c9 3 69 5 133 6l115 1 51-15zm-993-12c2-10 16-74 30-143s41-194 61-278c19-84 35-160 35-168v-14H930v13c0 6-4 18-9 26l-9 15-41-27c-22-15-43-27-46-27-2 0-12 17-21 38l-17 37-10-37-11-38H660v13c0 6 20 102 44 212 25 110 52 244 61 298l17 97h227l5-17zM633 2110c-23-5-90-25-149-45l-107-36-58-35c-32-19-61-40-65-45l-6-10 42-39 41-38 72 52c70 50 194 113 203 103 3-2-25-47-61-98l-67-94-49-100-49-100-16-67-17-67 6-14 5-14 49-12c26-7 55-14 64-17l17-5 7 28c14 59 160 230 310 366 94 84 190 157 208 157 4 0-17-33-47-72-70-95-149-237-176-317l-21-63 3-62 3-61 50-12 72-18 22-5 7 47c11 77 43 170 95 282l49 104 65 98c36 54 65 101 65 106 0 15-87 55-131 60l-39 6-43-28c-70-46-180-140-297-251-60-59-110-103-110-100 0 17 97 173 151 243 32 42 59 82 59 88 0 18-93 97-110 94-3-1-24-5-47-9zm637-122c-33-54-22-98 25-98h21l47 48c26 26 47 51 47 54 0 6-88 28-111 28-5 0-18-15-29-32zm-104-162c-45-60-116-228-116-274v-19l18-16c23-21 85-47 112-47h21l51 48 51 47 5-15c3-8 20-29 38-46l33-32 33-6 34-6 50 15 50 15 64 41 64 41 4-12c2-6 18-27 34-45l29-34 35-11 35-12 47 12c26 6 71 25 101 42l54 31 69 65c37 35 68 68 68 72 0 5-12 13-27 18l-28 9-65-60c-36-33-92-78-125-99l-60-39-17 22c-10 11-18 27-18 35v13l86 43c88 44 156 94 175 130l11 20-24 25c-27 31-93 62-128 63h-25l-60-29-61-28-44-54c-25-29-75-83-111-119l-67-66-50-27-51-28-17 26-16 25 6 45 7 44 32 48 32 47 34 23 35 23 9-9 10-10-20-61c-11-33-18-60-15-60 8 0 97 68 116 89l19 21-19 22c-23 26-103 78-121 78-7 0-37-9-67-21l-55-20-51-46c-28-25-58-60-67-77-18-36-123-159-130-152s87 185 124 233l33 44-12 4c-7 2-41 11-76 18l-63 15-23-32zm794-86c-23-33-130-123-137-116-2 2 7 26 20 53l25 48 39 36c21 20 45 39 53 41l15 5 3-19 3-18-21-30zM1410 610v-70h10c20 0 68 29 74 45 3 9 6 25 6 35v19l-26 20c-15 12-35 21-45 21h-19v-70zm537 3c-4-37-7-94-7-125v-58h15c9 0 28 6 43 14l28 14 14 28 15 27v107l-25 24c-14 14-37 28-51 31l-26 6-6-68zM821 509c-12-39-20-73-17-76s26-2 51 1l45 7v9c0 13-40 114-49 123l-7 7-23-71z"/></g><g fill="#040404" transform="matrix(.1 0 0 -.1 0 240)"><path d="M70 1200V70h2270v2260H70V1200zm2218 542 2-542-1082 2-1083 3-2 530c-2 292-1 536 2 543l4 12 1078-2 1078-3 3-543zm-833-803 59-11 48-24 48-24 25-38 24-37 12-53 11-54-12-46c-15-62-44-107-86-136l-34-23 22-29c11-16 39-48 61-71l39-41-77-36c-43-20-82-36-87-36-11 0-87 119-90 140-1 8-4-12-7-45l-6-60-111-3-111-3-6 143c-4 79-10 220-13 315l-7 172 54 4c116 8 188 7 244-4zm500 0 59-11 46-23c54-28 100-75 131-135l24-45V515l-24-45c-47-90-109-137-211-160l-55-12-97 3c-53 2-99 6-102 9-4 5-26 422-30 575l-1 50 55 6c94 10 144 9 205-2zM635 928c2-7 5-66 7-130l3-118H545l-25-13c-13-7-35-28-47-46l-23-34v-78l15-29 15-30 30-15c34-18 83-19 112-4l20 11-7-54c-4-29-11-61-16-70l-9-17-54-6-54-7-53 11-53 12-46 29c-56 37-97 88-123 154l-19 51v76l-1 76 18 54 18 53 51 52 52 51 44 16 45 15 98 1 98 1 4-12zm402-108c25-127 103-478 110-497l5-13H930l-6 25c-8 32-12 31-57-6-21-17-39-30-41-28s-12 22-23 43l-20 39-7-36-7-37H649l5 18c16 56 78 345 96 447 12 66 24 130 26 143l5 23 116-3 117-3 23-115zM615 2103c-137-34-305-105-341-145l-18-19 37-37 37-37 14 10c92 67 151 103 206 126 35 15 66 26 68 24s-19-34-46-72c-69-94-139-215-174-298l-30-70-5-56-6-56 49-17c26-9 56-16 66-16h18v14c0 7 19 42 42 76l41 62 115 120c147 152 310 284 328 265 2-2-18-33-45-68-60-79-144-225-172-299l-21-55-4-65-5-65 8-11c4-6 38-18 74-26l67-15 6 51c13 113 106 325 209 480l67 99-7 9c-9 15-111 58-137 58h-24l-60-40c-65-43-190-150-316-270l-79-75 7 20c16 46 94 170 148 238 32 39 58 74 58 77-1 10-26 37-61 63l-36 27-29-1c-16-1-38-4-49-6zm651-127-17-37 6-19 6-20h64l43 44 44 44-11 7c-7 3-35 9-65 12l-53 5-17-36zm606-136-54-19-44-36-44-36-27-46-26-45-75-59c-40-33-87-66-104-75l-30-15-20 18-20 18 4 52 5 53 33 48c32 47 85 92 108 92h12v-19c0-10-7-38-15-61-8-24-13-45-10-48 2-3 29 14 60 38l55 42v13c0 7-21 32-46 54l-47 41h-72l-51-24c-28-13-67-38-86-55l-37-32-29-52-30-52-51-50c-28-27-51-46-51-41 0 14 91 188 121 232l29 43-7 4c-5 3-37 11-72 18l-64 12-14-19c-37-49-96-181-114-254l-8-35 15-22 14-22 56-17 55-16 22 18c12 10 36 31 54 47l31 29 44-46 45-46h98l53 25c29 13 72 38 96 54l43 30 16-35 17-34 32-20 33-20h92l69 35 69 34 73 66c39 37 72 70 72 75s-14 11-31 15l-31 7-57-55c-61-60-167-137-187-137-16 0-34 31-34 57v18l73 33 72 32 58 45 57 45v47l-17 15c-23 20-71 44-103 51l-25 6-53-19zm118-40c0-26-34-72-91-124-92-83-106-71-39 32l40 62 32 20c36 22 58 26 58 10zM1417 671c-2-3-4-35-6-69l-3-64 24 7c12 4 31 15 42 25l19 18v26c0 14-6 32-12 40-12 15-60 27-64 17zm533-122V429l23 6c12 4 32 17 45 29l23 23 10 43 10 43-11 33-12 34-21 15c-12 8-32 15-44 15h-23V549zM826 513c-10-32-21-64-24-72l-5-13 44 7c24 4 47 9 51 12l8 4-20 51c-11 28-23 55-28 60l-8 8-18-57z"/></g></g></svg>